<svg xmlns="http://www.w3.org/2000/svg" viewBox="0 0 32 32" width="32" height="32">
  <!-- Background circle -->
  <circle cx="16" cy="16" r="15" fill="#3a7ca5" stroke="#2d5f7a" stroke-width="1"/>
  
  <!-- Notebook lines -->
  <rect x="8" y="6" width="16" height="20" fill="none" stroke="#ffffff" stroke-width="1.5" rx="1"/>
  
  <!-- Spiral binding -->
  <path d="M 8 8 Q 6 8 6 10 Q 6 12 8 12 Q 10 12 10 10 Q 10 8 8 8" fill="none" stroke="#ffffff" stroke-width="1"/>
  <path d="M 8 14 Q 6 14 6 16 Q 6 18 8 18 Q 10 18 10 16 Q 10 14 8 14" fill="none" stroke="#ffffff" stroke-width="1"/>
  <path d="M 8 20 Q 6 20 6 22 Q 6 24 8 24 Q 10 24 10 22 Q 10 20 8 20" fill="none" stroke="#ffffff" stroke-width="1"/>
  
  <!-- Document lines -->
  <line x1="12" y1="10" x2="22" y2="10" stroke="#ffffff" stroke-width="1"/>
  <line x1="12" y1="13" x2="20" y2="13" stroke="#ffffff" stroke-width="1"/>
  <line x1="12" y1="16" x2="18" y2="16" stroke="#ffffff" stroke-width="1"/>
  <line x1="12" y1="19" x2="22" y2="19" stroke="#ffffff" stroke-width="1"/>
  
  <!-- Scholarphile "S" -->
  <text x="16" y="28" font-family="Arial, sans-serif" font-size="8" font-weight="bold" text-anchor="middle" fill="#ffffff">S</text>
</svg> 